<svg width="63" height="26" viewBox="0 0 63 26" fill="none" xmlns="http://www.w3.org/2000/svg">
<path d="M22.6738 9.30859C22.8379 9.33594 22.9609 9.34961 23.043 9.34961C23.125 9.34961 23.2051 9.3418 23.2832 9.32617C23.3652 9.30664 23.4375 9.27734 23.5 9.23828C23.6406 9.15234 23.7109 9.01758 23.7109 8.83398C23.7109 8.68164 23.6641 8.51172 23.5703 8.32422L23.0195 6.95898H19.3105L18.6543 8.62305C18.5918 8.77539 18.5605 8.88672 18.5605 8.95703C18.5605 9.02344 18.5703 9.07422 18.5898 9.10938C18.6133 9.14062 18.6465 9.16797 18.6895 9.19141C18.7363 9.21484 18.793 9.23438 18.8594 9.25L19.0996 9.31445C19.3574 9.35742 19.5234 9.39648 19.5977 9.43164C19.75 9.50586 19.8262 9.61523 19.8262 9.75977C19.8262 9.86523 19.7969 9.95508 19.7383 10.0293C19.6641 10.0098 19.5957 10 19.5332 10H17.1484C16.6289 10 16.3691 9.85742 16.3691 9.57227C16.3691 9.43945 16.3984 9.33203 16.457 9.25C16.6016 9.28906 16.7227 9.30859 16.8203 9.30859C16.9219 9.30859 17.0059 9.29297 17.0723 9.26172C17.1426 9.23047 17.209 9.17773 17.2715 9.10352C17.377 8.97461 17.5 8.7168 17.6406 8.33008L20.5352 1.32227C20.6172 1.13477 20.8496 1.00586 21.2324 0.935547C21.3379 0.916016 21.4492 0.90625 21.5664 0.90625C21.8047 0.90625 21.9512 0.970703 22.0059 1.09961L22.5918 2.56445C23.7207 5.22852 24.373 6.7832 24.5488 7.22852L25.0762 8.61133C25.1816 8.91211 25.2695 9.09766 25.3398 9.16797C25.4102 9.23828 25.4863 9.28711 25.5684 9.31445C25.6504 9.3418 25.7344 9.36523 25.8203 9.38477C25.9102 9.40039 25.9883 9.42188 26.0547 9.44922C26.2031 9.51562 26.2773 9.61719 26.2773 9.75391C26.2773 9.85938 26.248 9.94922 26.1895 10.0234C26.1152 10.0039 26.0488 9.99414 25.9902 9.99414H23.1953C22.9961 9.99414 22.8398 9.9707 22.7266 9.92383C22.6172 9.87305 22.5625 9.79688 22.5625 9.69531C22.5625 9.51953 22.5996 9.39062 22.6738 9.30859ZM22.6797 6.12695L21.1445 2.33008L19.6387 6.12695H22.6797ZM30.5078 10.0586L28.8379 9.99414H27.3262C27.123 9.99414 26.9531 9.96094 26.8164 9.89453C26.6797 9.82422 26.6113 9.73828 26.6113 9.63672C26.6113 9.44922 26.6406 9.31836 26.6992 9.24414C26.8398 9.2832 26.9824 9.30273 27.127 9.30273C27.2715 9.30273 27.3926 9.29297 27.4902 9.27344C27.5918 9.25391 27.6816 9.21289 27.7598 9.15039C27.9395 9.00977 28.0293 8.76562 28.0293 8.41797V2.44727C28.0293 2.08398 27.8027 1.85742 27.3496 1.76758C27.0684 1.70898 26.8848 1.64648 26.7988 1.58008C26.7168 1.50977 26.6758 1.43359 26.6758 1.35156C26.6758 1.17187 26.707 1.05078 26.7695 0.988281C26.8398 1.00781 26.9043 1.01758 26.9629 1.01758C26.9629 1.01758 27.5547 1.01758 28.7383 1.01758C28.8281 1.01758 28.9473 1.01367 29.0957 1.00586C29.0957 1.00586 29.2617 0.996094 29.5938 0.976562C30.082 0.953125 30.582 0.941406 31.0938 0.941406C31.6094 0.941406 32.1094 1.00391 32.5938 1.12891C33.0781 1.25 33.4961 1.41602 33.8477 1.62695C34.2031 1.83789 34.498 2.08398 34.7324 2.36523C34.9707 2.64258 35.1621 2.9375 35.3066 3.25C35.5645 3.82422 35.6934 4.46875 35.6934 5.18359C35.6934 6.48047 35.3574 7.55859 34.6855 8.41797C34.1582 9.09375 33.3828 9.57031 32.3594 9.84766C31.8281 9.98828 31.2109 10.0586 30.5078 10.0586ZM29.4121 8.58789C29.4121 8.88086 29.5039 9.07031 29.6875 9.15625C29.8438 9.22656 30.2168 9.26172 30.8066 9.26172C31.4004 9.26172 31.9277 9.16406 32.3887 8.96875C32.8496 8.77344 33.2168 8.50977 33.4902 8.17773C33.9824 7.58008 34.2285 6.73828 34.2285 5.65234C34.2285 3.78906 33.5703 2.57227 32.2539 2.00195C31.7773 1.79492 31.1895 1.69141 30.4902 1.69141C30.0254 1.69141 29.7422 1.73828 29.6406 1.83203C29.5391 1.92187 29.4746 2.03516 29.4473 2.17188C29.4238 2.30469 29.4121 2.48438 29.4121 2.71094V8.58789ZM40.5859 10.0469C40.4961 10.0156 40.3027 10 40.0059 10H37.5625C37.3594 10 37.1973 9.96875 37.0762 9.90625C36.9551 9.83984 36.8945 9.7207 36.8945 9.54883C36.8945 9.42383 36.9238 9.32422 36.9824 9.25C37.1387 9.28906 37.2812 9.30859 37.4102 9.30859C37.543 9.30859 37.6465 9.29492 37.7207 9.26758C37.7988 9.24023 37.8652 9.19141 37.9199 9.12109C38.041 8.97266 38.1055 8.72852 38.1133 8.38867V2.40039C38.1133 2.0918 38.0273 1.89844 37.8555 1.82031C37.8008 1.79297 37.7266 1.76953 37.6328 1.75C37.5391 1.73047 37.4453 1.71094 37.3516 1.69141C37.2617 1.66797 37.1855 1.64062 37.123 1.60938C36.998 1.54687 36.9355 1.44141 36.9355 1.29297C36.9355 1.14844 36.9648 1.04102 37.0234 0.970703C37.1133 1.00195 37.3066 1.01758 37.6035 1.01758H39.9883C40.1914 1.01758 40.3535 1.05078 40.4746 1.11719C40.5996 1.17969 40.6621 1.29688 40.6621 1.46875C40.6621 1.59766 40.6309 1.69727 40.5684 1.76758C40.4199 1.72852 40.2578 1.70898 40.082 1.70898C39.7031 1.70898 39.5078 2.01758 39.4961 2.63477V8.61719C39.4961 8.92578 39.582 9.12109 39.7539 9.20312C39.8086 9.22656 39.8828 9.24805 39.9766 9.26758C40.0703 9.28711 40.1621 9.30859 40.252 9.33203C40.3457 9.35156 40.4238 9.37695 40.4863 9.4082C40.6152 9.47461 40.6797 9.58008 40.6797 9.72461C40.6797 9.86133 40.6484 9.96875 40.5859 10.0469ZM4.11719 25.0586L2.44727 24.9941H0.935547C0.732422 24.9941 0.5625 24.9609 0.425781 24.8945C0.289062 24.8242 0.220703 24.7383 0.220703 24.6367C0.220703 24.4492 0.25 24.3184 0.308594 24.2441C0.449219 24.2832 0.591797 24.3027 0.736328 24.3027C0.880859 24.3027 1.00195 24.293 1.09961 24.2734C1.20117 24.2539 1.29102 24.2129 1.36914 24.1504C1.54883 24.0098 1.63867 23.7656 1.63867 23.418V17.4473C1.63867 17.084 1.41211 16.8574 0.958984 16.7676C0.677734 16.709 0.494141 16.6465 0.408203 16.5801C0.326172 16.5098 0.285156 16.4336 0.285156 16.3516C0.285156 16.1719 0.316406 16.0508 0.378906 15.9883C0.449219 16.0078 0.513672 16.0176 0.572266 16.0176C0.572266 16.0176 1.16406 16.0176 2.34766 16.0176C2.4375 16.0176 2.55664 16.0137 2.70508 16.0059C2.70508 16.0059 2.87109 15.9961 3.20312 15.9766C3.69141 15.9531 4.19141 15.9414 4.70312 15.9414C5.21875 15.9414 5.71875 16.0039 6.20312 16.1289C6.6875 16.25 7.10547 16.416 7.45703 16.627C7.8125 16.8379 8.10742 17.084 8.3418 17.3652C8.58008 17.6426 8.77148 17.9375 8.91602 18.25C9.17383 18.8242 9.30273 19.4688 9.30273 20.1836C9.30273 21.4805 8.9668 22.5586 8.29492 23.418C7.76758 24.0938 6.99219 24.5703 5.96875 24.8477C5.4375 24.9883 4.82031 25.0586 4.11719 25.0586ZM3.02148 23.5879C3.02148 23.8809 3.11328 24.0703 3.29688 24.1562C3.45312 24.2266 3.82617 24.2617 4.41602 24.2617C5.00977 24.2617 5.53711 24.1641 5.99805 23.9688C6.45898 23.7734 6.82617 23.5098 7.09961 23.1777C7.5918 22.5801 7.83789 21.7383 7.83789 20.6523C7.83789 18.7891 7.17969 17.5723 5.86328 17.002C5.38672 16.7949 4.79883 16.6914 4.09961 16.6914C3.63477 16.6914 3.35156 16.7383 3.25 16.832C3.14844 16.9219 3.08398 17.0352 3.05664 17.1719C3.0332 17.3047 3.02148 17.4844 3.02148 17.7109V23.5879ZM14.1895 25.0469C14.0996 25.0156 13.9062 25 13.6094 25H11.166C10.9629 25 10.8008 24.9688 10.6797 24.9062C10.5586 24.8398 10.498 24.7207 10.498 24.5488C10.498 24.4238 10.5273 24.3242 10.5859 24.25C10.7422 24.2891 10.8867 24.3086 11.0195 24.3086C11.1523 24.3086 11.2578 24.2949 11.3359 24.2676C11.4141 24.2363 11.4824 24.1836 11.541 24.1094C11.6582 23.9531 11.7168 23.6934 11.7168 23.3301V17.3359C11.7051 17.0625 11.6152 16.8887 11.4473 16.8145C11.3965 16.791 11.3262 16.7695 11.2363 16.75L10.9551 16.6914C10.7637 16.6445 10.6465 16.5879 10.6035 16.5215C10.5605 16.4512 10.5391 16.3809 10.5391 16.3105C10.5391 16.166 10.5684 16.0527 10.627 15.9707C10.7168 16.002 10.9102 16.0176 11.207 16.0176H13.5918C13.7949 16.0176 13.957 16.0508 14.0781 16.1172C14.2031 16.1797 14.2656 16.2969 14.2656 16.4688C14.2656 16.5977 14.2344 16.6973 14.1719 16.7676C14.0234 16.7285 13.8613 16.709 13.6855 16.709C13.3066 16.709 13.1113 17.0176 13.0996 17.6348V20.2246H17.7871V17.3359C17.7754 17.0625 17.6855 16.8887 17.5176 16.8145C17.4668 16.791 17.3965 16.7695 17.3066 16.75L17.0254 16.6914C16.834 16.6445 16.7168 16.5879 16.6738 16.5215C16.6309 16.4512 16.6094 16.3809 16.6094 16.3105C16.6094 16.1543 16.6387 16.041 16.6973 15.9707C16.7871 16.002 16.9805 16.0176 17.2773 16.0176H19.6621C19.8652 16.0176 20.0273 16.0508 20.1484 16.1172C20.2734 16.1797 20.3359 16.2969 20.3359 16.4688C20.3359 16.5977 20.3047 16.6973 20.2422 16.7676C20.0938 16.7285 19.9316 16.709 19.7559 16.709C19.377 16.709 19.1816 17.0176 19.1699 17.6348V23.6172C19.1699 23.8359 19.2031 23.9805 19.2695 24.0508C19.3672 24.1562 19.4883 24.2246 19.6328 24.2559C19.7773 24.2832 19.8965 24.3086 19.9902 24.332C20.084 24.3516 20.1621 24.377 20.2246 24.4082C20.3496 24.4707 20.4121 24.5762 20.4121 24.7246C20.4121 24.8613 20.3809 24.9688 20.3184 25.0469C20.2285 25.0156 20.0352 25 19.7383 25H17.2949C17.0918 25 16.9297 24.9688 16.8086 24.9062C16.6875 24.8398 16.627 24.7207 16.627 24.5488C16.627 24.4238 16.6562 24.3242 16.7148 24.25C16.8633 24.2891 17.002 24.3086 17.1309 24.3086C17.2598 24.3086 17.3594 24.2949 17.4297 24.2676C17.5 24.2402 17.5605 24.1914 17.6113 24.1211C17.7207 23.9766 17.7793 23.7324 17.7871 23.3887V21.0332H13.0996V23.6172C13.0996 23.9258 13.1855 24.1211 13.3574 24.2031C13.4121 24.2266 13.4863 24.248 13.5801 24.2676C13.6738 24.2871 13.7656 24.3086 13.8555 24.332C13.9492 24.3516 14.0273 24.377 14.0898 24.4082C14.2188 24.4746 14.2832 24.5801 14.2832 24.7246C14.2832 24.8613 14.252 24.9688 14.1895 25.0469ZM27.1973 24.3086C27.3613 24.3359 27.4844 24.3496 27.5664 24.3496C27.6484 24.3496 27.7285 24.3418 27.8066 24.3262C27.8887 24.3066 27.9609 24.2773 28.0234 24.2383C28.1641 24.1523 28.2344 24.0176 28.2344 23.834C28.2344 23.6816 28.1875 23.5117 28.0938 23.3242L27.543 21.959H23.834L23.1777 23.623C23.1152 23.7754 23.084 23.8867 23.084 23.957C23.084 24.0234 23.0938 24.0742 23.1133 24.1094C23.1367 24.1406 23.1699 24.168 23.2129 24.1914C23.2598 24.2148 23.3164 24.2344 23.3828 24.25L23.623 24.3145C23.8809 24.3574 24.0469 24.3965 24.1211 24.4316C24.2734 24.5059 24.3496 24.6152 24.3496 24.7598C24.3496 24.8652 24.3203 24.9551 24.2617 25.0293C24.1875 25.0098 24.1191 25 24.0566 25H21.6719C21.1523 25 20.8926 24.8574 20.8926 24.5723C20.8926 24.4395 20.9219 24.332 20.9805 24.25C21.125 24.2891 21.2461 24.3086 21.3438 24.3086C21.4453 24.3086 21.5293 24.293 21.5957 24.2617C21.666 24.2305 21.7324 24.1777 21.7949 24.1035C21.9004 23.9746 22.0234 23.7168 22.1641 23.3301L25.0586 16.3223C25.1406 16.1348 25.373 16.0059 25.7559 15.9355C25.8613 15.916 25.9727 15.9062 26.0898 15.9062C26.3281 15.9062 26.4746 15.9707 26.5293 16.0996L27.1152 17.5645C28.2441 20.2285 28.8965 21.7832 29.0723 22.2285L29.5996 23.6113C29.7051 23.9121 29.793 24.0977 29.8633 24.168C29.9336 24.2383 30.0098 24.2871 30.0918 24.3145C30.1738 24.3418 30.2578 24.3652 30.3438 24.3848C30.4336 24.4004 30.5117 24.4219 30.5781 24.4492C30.7266 24.5156 30.8008 24.6172 30.8008 24.7539C30.8008 24.8594 30.7715 24.9492 30.7129 25.0234C30.6387 25.0039 30.5723 24.9941 30.5137 24.9941H27.7188C27.5195 24.9941 27.3633 24.9707 27.25 24.9238C27.1406 24.873 27.0859 24.7969 27.0859 24.6953C27.0859 24.5195 27.123 24.3906 27.1973 24.3086ZM27.2031 21.127L25.668 17.3301L24.1621 21.127H27.2031ZM34.9668 25.0469C34.877 25.0156 34.6855 25 34.3926 25H32.002C31.7988 25 31.6367 24.9688 31.5156 24.9062C31.3945 24.8398 31.334 24.7207 31.334 24.5488C31.334 24.4238 31.3633 24.3242 31.4219 24.25C31.5703 24.2891 31.7129 24.3086 31.8496 24.3086C31.9863 24.3086 32.0938 24.2949 32.1719 24.2676C32.25 24.2363 32.3184 24.1836 32.377 24.1094C32.4941 23.9531 32.5527 23.6934 32.5527 23.3301V17.3359C32.541 17.0625 32.4512 16.8887 32.2832 16.8145C32.2324 16.791 32.1621 16.7695 32.0723 16.75C31.9863 16.7305 31.9004 16.7109 31.8145 16.6914C31.7324 16.668 31.6621 16.6406 31.6035 16.6094C31.4863 16.5469 31.4277 16.4648 31.4277 16.3633C31.4277 16.1797 31.459 16.0488 31.5215 15.9707C31.6113 16.002 31.8047 16.0176 32.1016 16.0176H32.8633L34.9199 15.959L35.1719 15.9531C36.375 15.9531 37.2754 16.168 37.873 16.5977C38.4707 17.0234 38.7695 17.625 38.7695 18.4023C38.7695 18.9844 38.5801 19.5195 38.2012 20.0078C37.7793 20.5508 37.1973 20.918 36.4551 21.1094C36.6582 21.25 36.8887 21.5078 37.1465 21.8828L37.7676 22.791C38.3496 23.6387 38.832 24.0625 39.2148 24.0625C39.3594 24.0625 39.4688 24.0488 39.543 24.0215L39.6895 23.9629C39.7207 23.9512 39.7559 23.9453 39.7949 23.9453C39.834 23.9453 39.875 23.9766 39.918 24.0391C39.9609 24.0977 39.9824 24.166 39.9824 24.2441C39.9824 24.3223 39.9492 24.416 39.8828 24.5254C39.8164 24.6309 39.7227 24.7266 39.6016 24.8125C39.3281 25.0117 39.0293 25.1113 38.7051 25.1113C38.3809 25.1113 38.1133 25.0566 37.9023 24.9473C37.6953 24.8379 37.5039 24.6953 37.3281 24.5195C37.1562 24.3398 36.998 24.1367 36.8535 23.9102C36.7129 23.6836 36.5801 23.4512 36.4551 23.2129L36.1094 22.5156C35.8633 22.0078 35.666 21.6816 35.5176 21.5371C35.373 21.3887 35.2402 21.3145 35.1191 21.3145H34.5273C34.4297 21.3145 34.3809 21.2441 34.3809 21.1035C34.3809 20.9082 34.4551 20.7559 34.6035 20.6465C34.6543 20.6113 34.8066 20.5918 35.0605 20.5879C35.3145 20.5801 35.5996 20.5254 35.916 20.4238C36.2363 20.3223 36.5 20.1836 36.707 20.0078C37.1094 19.6602 37.3105 19.1719 37.3105 18.543C37.3105 18.0156 37.1348 17.584 36.7832 17.248C36.3848 16.8691 35.8301 16.6758 35.1191 16.668C34.6504 16.668 34.3379 16.7383 34.1816 16.8789C34.0254 17.0117 33.9434 17.2637 33.9355 17.6348V23.6172C33.9355 23.9258 34.0215 24.1211 34.1934 24.2031C34.248 24.2266 34.3203 24.248 34.4102 24.2676C34.5 24.2871 34.5859 24.3086 34.668 24.332C34.7539 24.3516 34.8262 24.377 34.8848 24.4082C35.002 24.4707 35.0605 24.5547 35.0605 24.6602C35.0605 24.8398 35.0293 24.9688 34.9668 25.0469ZM41.1367 25C40.6133 25 40.3516 24.8555 40.3516 24.5664C40.3516 24.4375 40.3828 24.334 40.4453 24.2559C40.5586 24.2871 40.6738 24.3027 40.791 24.3027C40.9082 24.3027 41.0078 24.2988 41.0898 24.291C41.1719 24.2832 41.248 24.25 41.3184 24.1914C41.4629 24.0586 41.5527 23.7637 41.5879 23.3066L42.1914 17.084C42.1992 16.9863 42.166 16.9102 42.0918 16.8555C42.0176 16.8008 41.9258 16.7617 41.8164 16.7383C41.707 16.7148 41.6113 16.6953 41.5293 16.6797C41.4512 16.6641 41.3828 16.6406 41.3242 16.6094C41.2031 16.5508 41.1426 16.4512 41.1426 16.3105C41.1426 16.166 41.1699 16.0586 41.2246 15.9883C41.2988 16.0078 41.3652 16.0176 41.4238 16.0176H43.1582C43.7402 16.0176 44.0977 16.1602 44.2305 16.4453L46.4102 21.5605L48.6602 16.416C48.7344 16.2441 48.8457 16.1348 48.9941 16.0879C49.1426 16.041 49.332 16.0176 49.5625 16.0176H50.6992C51.2266 16.0176 51.4902 16.1562 51.4902 16.4336C51.4902 16.582 51.4609 16.6895 51.4023 16.7559C51.2461 16.7129 51.1172 16.6914 51.0156 16.6914C50.918 16.6914 50.8301 16.6992 50.752 16.7148C50.6738 16.7305 50.6113 16.7598 50.5645 16.8027C50.4668 16.8848 50.4297 17.0488 50.4531 17.2949L51.0859 23.7051C51.1133 23.9785 51.2598 24.1504 51.5254 24.2207C51.5996 24.2402 51.6777 24.2637 51.7598 24.291L51.9883 24.3672C52.1328 24.4141 52.2207 24.4766 52.252 24.5547C52.2832 24.6289 52.2988 24.7012 52.2988 24.7715C52.2988 24.8691 52.2695 24.9551 52.2109 25.0293C52.1211 25.0098 52.0293 25 51.9355 25H49.2637C48.7871 25 48.5488 24.8574 48.5488 24.5723C48.5488 24.5254 48.5625 24.4668 48.5898 24.3965C48.6172 24.3223 48.6387 24.2754 48.6543 24.2559C48.7715 24.2871 48.8789 24.3027 48.9766 24.3027C49.0781 24.3027 49.1816 24.2949 49.2871 24.2793C49.3965 24.2637 49.4883 24.2266 49.5625 24.168C49.7227 24.0352 49.791 23.7832 49.7676 23.4121L49.3867 18.3848L49.334 17.4062L46.6387 23.377C46.5879 23.4082 46.5098 23.4238 46.4043 23.4238C46.2988 23.4238 46.1895 23.3867 46.0762 23.3125C45.9668 23.2344 45.8672 23.1387 45.7773 23.0254C45.6328 22.8418 45.4941 22.6074 45.3613 22.3223L43.1816 17.2129L42.707 23.5938C42.6914 23.8164 42.7227 23.9668 42.8008 24.0449C42.8984 24.1426 43.0273 24.2129 43.1875 24.2559C43.3477 24.2988 43.4727 24.332 43.5625 24.3555C43.6523 24.375 43.7305 24.4023 43.7969 24.4375C43.9414 24.5078 44.0137 24.625 44.0137 24.7891C44.0137 24.8711 43.9824 24.9512 43.9199 25.0293C43.8496 25.0098 43.7832 25 43.7207 25H41.1367ZM58.709 24.3086C58.873 24.3359 58.9961 24.3496 59.0781 24.3496C59.1602 24.3496 59.2402 24.3418 59.3184 24.3262C59.4004 24.3066 59.4727 24.2773 59.5352 24.2383C59.6758 24.1523 59.7461 24.0176 59.7461 23.834C59.7461 23.6816 59.6992 23.5117 59.6055 23.3242L59.0547 21.959H55.3457L54.6895 23.623C54.627 23.7754 54.5957 23.8867 54.5957 23.957C54.5957 24.0234 54.6055 24.0742 54.625 24.1094C54.6484 24.1406 54.6816 24.168 54.7246 24.1914C54.7715 24.2148 54.8281 24.2344 54.8945 24.25L55.1348 24.3145C55.3926 24.3574 55.5586 24.3965 55.6328 24.4316C55.7852 24.5059 55.8613 24.6152 55.8613 24.7598C55.8613 24.8652 55.832 24.9551 55.7734 25.0293C55.6992 25.0098 55.6309 25 55.5684 25H53.1836C52.6641 25 52.4043 24.8574 52.4043 24.5723C52.4043 24.4395 52.4336 24.332 52.4922 24.25C52.6367 24.2891 52.7578 24.3086 52.8555 24.3086C52.957 24.3086 53.041 24.293 53.1074 24.2617C53.1777 24.2305 53.2441 24.1777 53.3066 24.1035C53.4121 23.9746 53.5352 23.7168 53.6758 23.3301L56.5703 16.3223C56.6523 16.1348 56.8848 16.0059 57.2676 15.9355C57.373 15.916 57.4844 15.9062 57.6016 15.9062C57.8398 15.9062 57.9863 15.9707 58.041 16.0996L58.627 17.5645C59.7559 20.2285 60.4082 21.7832 60.584 22.2285L61.1113 23.6113C61.2168 23.9121 61.3047 24.0977 61.375 24.168C61.4453 24.2383 61.5215 24.2871 61.6035 24.3145C61.6855 24.3418 61.7695 24.3652 61.8555 24.3848C61.9453 24.4004 62.0234 24.4219 62.0898 24.4492C62.2383 24.5156 62.3125 24.6172 62.3125 24.7539C62.3125 24.8594 62.2832 24.9492 62.2246 25.0234C62.1504 25.0039 62.084 24.9941 62.0254 24.9941H59.2305C59.0312 24.9941 58.875 24.9707 58.7617 24.9238C58.6523 24.873 58.5977 24.7969 58.5977 24.6953C58.5977 24.5195 58.6348 24.3906 58.709 24.3086ZM58.7148 21.127L57.1797 17.3301L55.6738 21.127H58.7148Z" fill="white"/>
</svg>
